%
M48
M72
T01C0.02400
T02C0.02500
T03C0.03937
T04C0.04000
T05C0.11811
%
T01
X176800Y51800
T02
X175800Y165200
X175800Y170400
T03
X31800Y36800
X41800Y36800
X51800Y36800
X76800Y36800
X86800Y36800
X96800Y36800
X121800Y36800
X131800Y36800
X141800Y36800
X166800Y36800
X176800Y36800
X186800Y36800
X211800Y36800
X221800Y36800
X231800Y36800
X256800Y36800
X266800Y36800
X276800Y36800
X301800Y36800
X311800Y36800
X321800Y36800
X346800Y36800
X356800Y36800
X366800Y36800
X366800Y81800
X376800Y81800
X386800Y81800
X341800Y81800
X331800Y81800
X321800Y81800
X296800Y81800
X286800Y81800
X276800Y81800
X251800Y81800
X241800Y81800
X231800Y81800
X206800Y81800
X196800Y81800
X186800Y81800
X161800Y81800
X151800Y81800
X141800Y81800
X116800Y81800
X106800Y81800
X96800Y81800
X71800Y81800
X61800Y81800
X51800Y81800
X51800Y246800
X61800Y246800
X71800Y246800
X96800Y246800
X106800Y246800
X116800Y246800
X141800Y246800
X151800Y246800
X161800Y246800
X186800Y246800
X196800Y246800
X206800Y246800
X231800Y246800
X241800Y246800
X251800Y246800
X276800Y246800
X286800Y246800
X296800Y246800
X321800Y246800
X331800Y246800
X341800Y246800
X366800Y246800
X376800Y246800
X386800Y246800
X366800Y291800
X356800Y291800
X346800Y291800
X321800Y291800
X311800Y291800
X301800Y291800
X276800Y291800
X266800Y291800
X256800Y291800
X231800Y291800
X221800Y291800
X211800Y291800
X186800Y291800
X176800Y291800
X166800Y291800
X141800Y291800
X131800Y291800
X121800Y291800
X96800Y291800
X86800Y291800
X76800Y291800
X51800Y291800
X41800Y291800
X31800Y291800
T04
X116800Y196800
X126800Y196800
X136800Y196800
X146800Y196800
X156800Y196800
X166800Y196800
X176800Y196800
X186800Y196800
X196800Y196800
X206800Y196800
X216800Y196800
X226800Y196800
X236800Y196800
X246800Y196800
X256800Y196800
X266800Y196800
X276800Y196800
X286800Y196800
X296800Y196800
X306800Y196800
X306800Y176800
X306800Y166800
X306800Y156800
X306800Y136800
X296800Y136800
X286800Y136800
X276800Y136800
X266800Y136800
X256800Y136800
X246800Y136800
X236800Y136800
X226800Y136800
X216800Y136800
X206800Y136800
X196800Y136800
X186800Y136800
X176800Y136800
X166800Y136800
X156800Y136800
X146800Y136800
X136800Y136800
X126800Y136800
X116800Y136800
X246800Y166800
X256800Y166800
X266800Y166800
X266800Y176800
X256800Y176800
X246800Y176800
X276800Y176800
X276800Y166800
T05
X386800Y301800
X96800Y171800
X391800Y31800
M30
