G75*
%MOIN*%
%OFA0B0*%
%FSLAX25Y25*%
%IPPOS*%
%LPD*%
%AMOC8*
5,1,8,0,0,1.08239X$1,22.5*
%
%ADD10C,0.12611*%
%ADD11R,0.08200X0.08200*%
%ADD12C,0.08200*%
%ADD13C,0.05300*%
%ADD14C,0.06737*%
%ADD15C,0.04800*%
D10*
X0096800Y0171800D03*
X0386800Y0301800D03*
X0391800Y0031800D03*
D11*
X0306800Y0176800D03*
X0116800Y0136800D03*
D12*
X0126800Y0136800D03*
X0136800Y0136800D03*
X0146800Y0136800D03*
X0156800Y0136800D03*
X0166800Y0136800D03*
X0176800Y0136800D03*
X0186800Y0136800D03*
X0196800Y0136800D03*
X0206800Y0136800D03*
X0216800Y0136800D03*
X0226800Y0136800D03*
X0236800Y0136800D03*
X0246800Y0136800D03*
X0256800Y0136800D03*
X0266800Y0136800D03*
X0276800Y0136800D03*
X0286800Y0136800D03*
X0296800Y0136800D03*
X0306800Y0136800D03*
X0306800Y0156800D03*
X0306800Y0166800D03*
X0276800Y0166800D03*
X0276800Y0176800D03*
X0266800Y0176800D03*
X0256800Y0176800D03*
X0246800Y0176800D03*
X0246800Y0166800D03*
X0256800Y0166800D03*
X0266800Y0166800D03*
X0266800Y0196800D03*
X0256800Y0196800D03*
X0246800Y0196800D03*
X0236800Y0196800D03*
X0226800Y0196800D03*
X0216800Y0196800D03*
X0206800Y0196800D03*
X0196800Y0196800D03*
X0186800Y0196800D03*
X0176800Y0196800D03*
X0166800Y0196800D03*
X0156800Y0196800D03*
X0146800Y0196800D03*
X0136800Y0196800D03*
X0126800Y0196800D03*
X0116800Y0196800D03*
X0276800Y0196800D03*
X0286800Y0196800D03*
X0296800Y0196800D03*
X0306800Y0196800D03*
D13*
X0175800Y0170400D03*
X0175800Y0165200D03*
D14*
X0031800Y0039769D02*
X0031800Y0033831D01*
X0041800Y0033831D02*
X0041800Y0039769D01*
X0051800Y0039769D02*
X0051800Y0033831D01*
X0076800Y0033831D02*
X0076800Y0039769D01*
X0086800Y0039769D02*
X0086800Y0033831D01*
X0096800Y0033831D02*
X0096800Y0039769D01*
X0121800Y0039769D02*
X0121800Y0033831D01*
X0131800Y0033831D02*
X0131800Y0039769D01*
X0141800Y0039769D02*
X0141800Y0033831D01*
X0166800Y0033831D02*
X0166800Y0039769D01*
X0176800Y0039769D02*
X0176800Y0033831D01*
X0186800Y0033831D02*
X0186800Y0039769D01*
X0211800Y0039769D02*
X0211800Y0033831D01*
X0221800Y0033831D02*
X0221800Y0039769D01*
X0231800Y0039769D02*
X0231800Y0033831D01*
X0256800Y0033831D02*
X0256800Y0039769D01*
X0266800Y0039769D02*
X0266800Y0033831D01*
X0276800Y0033831D02*
X0276800Y0039769D01*
X0301800Y0039769D02*
X0301800Y0033831D01*
X0311800Y0033831D02*
X0311800Y0039769D01*
X0321800Y0039769D02*
X0321800Y0033831D01*
X0346800Y0033831D02*
X0346800Y0039769D01*
X0356800Y0039769D02*
X0356800Y0033831D01*
X0366800Y0033831D02*
X0366800Y0039769D01*
X0366800Y0078831D02*
X0366800Y0084769D01*
X0376800Y0084769D02*
X0376800Y0078831D01*
X0386800Y0078831D02*
X0386800Y0084769D01*
X0341800Y0084769D02*
X0341800Y0078831D01*
X0331800Y0078831D02*
X0331800Y0084769D01*
X0321800Y0084769D02*
X0321800Y0078831D01*
X0296800Y0078831D02*
X0296800Y0084769D01*
X0286800Y0084769D02*
X0286800Y0078831D01*
X0276800Y0078831D02*
X0276800Y0084769D01*
X0251800Y0084769D02*
X0251800Y0078831D01*
X0241800Y0078831D02*
X0241800Y0084769D01*
X0231800Y0084769D02*
X0231800Y0078831D01*
X0206800Y0078831D02*
X0206800Y0084769D01*
X0196800Y0084769D02*
X0196800Y0078831D01*
X0186800Y0078831D02*
X0186800Y0084769D01*
X0161800Y0084769D02*
X0161800Y0078831D01*
X0151800Y0078831D02*
X0151800Y0084769D01*
X0141800Y0084769D02*
X0141800Y0078831D01*
X0116800Y0078831D02*
X0116800Y0084769D01*
X0106800Y0084769D02*
X0106800Y0078831D01*
X0096800Y0078831D02*
X0096800Y0084769D01*
X0071800Y0084769D02*
X0071800Y0078831D01*
X0061800Y0078831D02*
X0061800Y0084769D01*
X0051800Y0084769D02*
X0051800Y0078831D01*
X0051800Y0243831D02*
X0051800Y0249769D01*
X0061800Y0249769D02*
X0061800Y0243831D01*
X0071800Y0243831D02*
X0071800Y0249769D01*
X0096800Y0249769D02*
X0096800Y0243831D01*
X0106800Y0243831D02*
X0106800Y0249769D01*
X0116800Y0249769D02*
X0116800Y0243831D01*
X0141800Y0243831D02*
X0141800Y0249769D01*
X0151800Y0249769D02*
X0151800Y0243831D01*
X0161800Y0243831D02*
X0161800Y0249769D01*
X0186800Y0249769D02*
X0186800Y0243831D01*
X0196800Y0243831D02*
X0196800Y0249769D01*
X0206800Y0249769D02*
X0206800Y0243831D01*
X0231800Y0243831D02*
X0231800Y0249769D01*
X0241800Y0249769D02*
X0241800Y0243831D01*
X0251800Y0243831D02*
X0251800Y0249769D01*
X0276800Y0249769D02*
X0276800Y0243831D01*
X0286800Y0243831D02*
X0286800Y0249769D01*
X0296800Y0249769D02*
X0296800Y0243831D01*
X0321800Y0243831D02*
X0321800Y0249769D01*
X0331800Y0249769D02*
X0331800Y0243831D01*
X0341800Y0243831D02*
X0341800Y0249769D01*
X0366800Y0249769D02*
X0366800Y0243831D01*
X0376800Y0243831D02*
X0376800Y0249769D01*
X0386800Y0249769D02*
X0386800Y0243831D01*
X0366800Y0288831D02*
X0366800Y0294769D01*
X0356800Y0294769D02*
X0356800Y0288831D01*
X0346800Y0288831D02*
X0346800Y0294769D01*
X0321800Y0294769D02*
X0321800Y0288831D01*
X0311800Y0288831D02*
X0311800Y0294769D01*
X0301800Y0294769D02*
X0301800Y0288831D01*
X0276800Y0288831D02*
X0276800Y0294769D01*
X0266800Y0294769D02*
X0266800Y0288831D01*
X0256800Y0288831D02*
X0256800Y0294769D01*
X0231800Y0294769D02*
X0231800Y0288831D01*
X0221800Y0288831D02*
X0221800Y0294769D01*
X0211800Y0294769D02*
X0211800Y0288831D01*
X0186800Y0288831D02*
X0186800Y0294769D01*
X0176800Y0294769D02*
X0176800Y0288831D01*
X0166800Y0288831D02*
X0166800Y0294769D01*
X0141800Y0294769D02*
X0141800Y0288831D01*
X0131800Y0288831D02*
X0131800Y0294769D01*
X0121800Y0294769D02*
X0121800Y0288831D01*
X0096800Y0288831D02*
X0096800Y0294769D01*
X0086800Y0294769D02*
X0086800Y0288831D01*
X0076800Y0288831D02*
X0076800Y0294769D01*
X0051800Y0294769D02*
X0051800Y0288831D01*
X0041800Y0288831D02*
X0041800Y0294769D01*
X0031800Y0294769D02*
X0031800Y0288831D01*
D15*
X0176800Y0051800D03*
M02*
