G75*
%MOIN*%
%OFA0B0*%
%FSLAX25Y25*%
%IPPOS*%
%LPD*%
%AMOC8*
5,1,8,0,0,1.08239X$1,22.5*
%
%ADD10C,0.00600*%
%ADD11C,0.00500*%
%ADD12C,0.01000*%
%ADD13C,0.00400*%
D10*
X0111800Y0131800D02*
X0111800Y0141800D01*
X0111800Y0162800D01*
X0111926Y0162802D01*
X0112051Y0162808D01*
X0112176Y0162818D01*
X0112301Y0162832D01*
X0112426Y0162849D01*
X0112550Y0162871D01*
X0112673Y0162896D01*
X0112795Y0162926D01*
X0112916Y0162959D01*
X0113036Y0162996D01*
X0113155Y0163036D01*
X0113272Y0163081D01*
X0113389Y0163129D01*
X0113503Y0163181D01*
X0113616Y0163236D01*
X0113727Y0163295D01*
X0113836Y0163357D01*
X0113943Y0163423D01*
X0114048Y0163492D01*
X0114151Y0163564D01*
X0114252Y0163639D01*
X0114350Y0163718D01*
X0114445Y0163800D01*
X0114538Y0163884D01*
X0114628Y0163972D01*
X0114716Y0164062D01*
X0114800Y0164155D01*
X0114882Y0164250D01*
X0114961Y0164348D01*
X0115036Y0164449D01*
X0115108Y0164552D01*
X0115177Y0164657D01*
X0115243Y0164764D01*
X0115305Y0164873D01*
X0115364Y0164984D01*
X0115419Y0165097D01*
X0115471Y0165211D01*
X0115519Y0165328D01*
X0115564Y0165445D01*
X0115604Y0165564D01*
X0115641Y0165684D01*
X0115674Y0165805D01*
X0115704Y0165927D01*
X0115729Y0166050D01*
X0115751Y0166174D01*
X0115768Y0166299D01*
X0115782Y0166424D01*
X0115792Y0166549D01*
X0115798Y0166674D01*
X0115800Y0166800D01*
X0115798Y0166926D01*
X0115792Y0167051D01*
X0115782Y0167176D01*
X0115768Y0167301D01*
X0115751Y0167426D01*
X0115729Y0167550D01*
X0115704Y0167673D01*
X0115674Y0167795D01*
X0115641Y0167916D01*
X0115604Y0168036D01*
X0115564Y0168155D01*
X0115519Y0168272D01*
X0115471Y0168389D01*
X0115419Y0168503D01*
X0115364Y0168616D01*
X0115305Y0168727D01*
X0115243Y0168836D01*
X0115177Y0168943D01*
X0115108Y0169048D01*
X0115036Y0169151D01*
X0114961Y0169252D01*
X0114882Y0169350D01*
X0114800Y0169445D01*
X0114716Y0169538D01*
X0114628Y0169628D01*
X0114538Y0169716D01*
X0114445Y0169800D01*
X0114350Y0169882D01*
X0114252Y0169961D01*
X0114151Y0170036D01*
X0114048Y0170108D01*
X0113943Y0170177D01*
X0113836Y0170243D01*
X0113727Y0170305D01*
X0113616Y0170364D01*
X0113503Y0170419D01*
X0113389Y0170471D01*
X0113272Y0170519D01*
X0113155Y0170564D01*
X0113036Y0170604D01*
X0112916Y0170641D01*
X0112795Y0170674D01*
X0112673Y0170704D01*
X0112550Y0170729D01*
X0112426Y0170751D01*
X0112301Y0170768D01*
X0112176Y0170782D01*
X0112051Y0170792D01*
X0111926Y0170798D01*
X0111800Y0170800D01*
X0111800Y0191800D01*
X0311800Y0191800D01*
X0311800Y0141800D01*
X0311800Y0131800D01*
X0111800Y0131800D01*
X0111800Y0141800D02*
X0311800Y0141800D01*
X0322100Y0147100D02*
X0325303Y0147100D01*
X0326370Y0148168D01*
X0326370Y0149235D01*
X0325303Y0150303D01*
X0322100Y0150303D01*
X0322100Y0153505D02*
X0322100Y0147100D01*
X0325303Y0150303D02*
X0326370Y0151370D01*
X0326370Y0152438D01*
X0325303Y0153505D01*
X0322100Y0153505D01*
X0328545Y0150303D02*
X0328545Y0148168D01*
X0329613Y0147100D01*
X0331748Y0147100D01*
X0332816Y0149235D02*
X0328545Y0149235D01*
X0328545Y0150303D02*
X0329613Y0151370D01*
X0331748Y0151370D01*
X0332816Y0150303D01*
X0332816Y0149235D01*
X0334991Y0147100D02*
X0334991Y0151370D01*
X0338194Y0151370D01*
X0339261Y0150303D01*
X0339261Y0147100D01*
X0347882Y0147100D02*
X0347882Y0153505D01*
X0351085Y0153505D01*
X0352152Y0152438D01*
X0352152Y0151370D01*
X0351085Y0150303D01*
X0347882Y0150303D01*
X0351085Y0150303D02*
X0352152Y0149235D01*
X0352152Y0148168D01*
X0351085Y0147100D01*
X0347882Y0147100D01*
X0354327Y0148168D02*
X0354327Y0150303D01*
X0355395Y0151370D01*
X0357530Y0151370D01*
X0358598Y0150303D01*
X0358598Y0149235D01*
X0354327Y0149235D01*
X0354327Y0148168D02*
X0355395Y0147100D01*
X0357530Y0147100D01*
X0360773Y0147100D02*
X0360773Y0151370D01*
X0363976Y0151370D01*
X0365043Y0150303D01*
X0365043Y0147100D01*
X0367218Y0148168D02*
X0367218Y0150303D01*
X0368286Y0151370D01*
X0371489Y0151370D01*
X0371489Y0146032D01*
X0370421Y0144965D01*
X0369354Y0144965D01*
X0368286Y0147100D02*
X0371489Y0147100D01*
X0373664Y0147100D02*
X0375799Y0147100D01*
X0374732Y0147100D02*
X0374732Y0153505D01*
X0373664Y0153505D01*
X0377961Y0150303D02*
X0379029Y0151370D01*
X0381164Y0151370D01*
X0382231Y0150303D01*
X0382231Y0149235D01*
X0377961Y0149235D01*
X0377961Y0148168D02*
X0377961Y0150303D01*
X0377961Y0148168D02*
X0379029Y0147100D01*
X0381164Y0147100D01*
X0384406Y0147100D02*
X0384406Y0151370D01*
X0384406Y0149235D02*
X0386542Y0151370D01*
X0387609Y0151370D01*
X0396223Y0152438D02*
X0397291Y0153505D01*
X0399426Y0153505D01*
X0400494Y0152438D01*
X0400494Y0151370D01*
X0396223Y0147100D01*
X0400494Y0147100D01*
X0402669Y0148168D02*
X0406939Y0152438D01*
X0406939Y0148168D01*
X0405871Y0147100D01*
X0403736Y0147100D01*
X0402669Y0148168D01*
X0402669Y0152438D01*
X0403736Y0153505D01*
X0405871Y0153505D01*
X0406939Y0152438D01*
X0409114Y0151370D02*
X0411249Y0153505D01*
X0411249Y0147100D01*
X0409114Y0147100D02*
X0413385Y0147100D01*
X0415560Y0148168D02*
X0416627Y0147100D01*
X0418762Y0147100D01*
X0419830Y0148168D01*
X0419830Y0149235D01*
X0418762Y0150303D01*
X0415560Y0150303D01*
X0415560Y0148168D01*
X0415560Y0150303D02*
X0417695Y0152438D01*
X0419830Y0153505D01*
X0368286Y0147100D02*
X0367218Y0148168D01*
X0311800Y0191800D02*
X0311800Y0201800D01*
X0111800Y0201800D01*
X0111800Y0191800D01*
X0099758Y0176370D02*
X0097623Y0176370D01*
X0096555Y0175303D01*
X0096555Y0173168D01*
X0097623Y0172100D01*
X0099758Y0172100D01*
X0100825Y0174235D02*
X0096555Y0174235D01*
X0094380Y0173168D02*
X0093312Y0172100D01*
X0090109Y0172100D01*
X0090109Y0169965D02*
X0090109Y0176370D01*
X0093312Y0176370D01*
X0094380Y0175303D01*
X0094380Y0173168D01*
X0099758Y0176370D02*
X0100825Y0175303D01*
X0100825Y0174235D01*
X0087934Y0173168D02*
X0086867Y0172100D01*
X0084732Y0172100D01*
X0083664Y0173168D01*
X0083664Y0175303D01*
X0084732Y0176370D01*
X0086867Y0176370D01*
X0087934Y0175303D01*
X0087934Y0173168D01*
X0081489Y0172100D02*
X0078286Y0172100D01*
X0077218Y0173168D01*
X0077218Y0175303D01*
X0078286Y0176370D01*
X0081489Y0176370D01*
X0075043Y0176370D02*
X0071841Y0176370D01*
X0070773Y0175303D01*
X0071841Y0174235D01*
X0073976Y0174235D01*
X0075043Y0173168D01*
X0073976Y0172100D01*
X0070773Y0172100D01*
X0068598Y0173168D02*
X0068598Y0175303D01*
X0067530Y0176370D01*
X0065395Y0176370D01*
X0064327Y0175303D01*
X0064327Y0173168D01*
X0065395Y0172100D01*
X0067530Y0172100D01*
X0068598Y0173168D01*
X0062152Y0172100D02*
X0058950Y0172100D01*
X0057882Y0173168D01*
X0057882Y0175303D01*
X0058950Y0176370D01*
X0062152Y0176370D01*
X0062152Y0178505D02*
X0062152Y0172100D01*
X0055720Y0172100D02*
X0053585Y0172100D01*
X0054653Y0172100D02*
X0054653Y0176370D01*
X0053585Y0176370D01*
X0054653Y0178505D02*
X0054653Y0179573D01*
X0050356Y0178505D02*
X0050356Y0172100D01*
X0051423Y0172100D02*
X0049288Y0172100D01*
X0047126Y0172100D02*
X0044991Y0172100D01*
X0046059Y0172100D02*
X0046059Y0178505D01*
X0044991Y0178505D01*
X0042816Y0175303D02*
X0041748Y0176370D01*
X0039613Y0176370D01*
X0038545Y0175303D01*
X0038545Y0173168D01*
X0039613Y0172100D01*
X0041748Y0172100D01*
X0042816Y0173168D01*
X0042816Y0175303D01*
X0049288Y0178505D02*
X0050356Y0178505D01*
X0036370Y0177438D02*
X0035303Y0178505D01*
X0033168Y0178505D01*
X0032100Y0177438D01*
X0032100Y0173168D01*
X0033168Y0172100D01*
X0035303Y0172100D01*
X0036370Y0173168D01*
X0062100Y0163505D02*
X0062100Y0157100D01*
X0062100Y0159235D02*
X0065303Y0159235D01*
X0066370Y0160303D01*
X0066370Y0162438D01*
X0065303Y0163505D01*
X0062100Y0163505D01*
X0064235Y0159235D02*
X0066370Y0157100D01*
X0068545Y0157100D02*
X0072816Y0157100D01*
X0074991Y0159235D02*
X0077126Y0157100D01*
X0079261Y0159235D01*
X0079261Y0163505D01*
X0081436Y0161370D02*
X0083572Y0163505D01*
X0085707Y0161370D01*
X0085707Y0157100D01*
X0085707Y0160303D02*
X0081436Y0160303D01*
X0081436Y0161370D02*
X0081436Y0157100D01*
X0074991Y0159235D02*
X0074991Y0163505D01*
X0072816Y0163505D02*
X0068545Y0163505D01*
X0068545Y0157100D01*
X0068545Y0160303D02*
X0070681Y0160303D01*
D11*
X0105046Y0145259D02*
X0109550Y0145259D01*
X0109550Y0143758D02*
X0109550Y0146760D01*
X0106547Y0143758D02*
X0105046Y0145259D01*
X0105797Y0142156D02*
X0105046Y0141406D01*
X0105046Y0139905D01*
X0105797Y0139154D01*
X0106547Y0139154D01*
X0107298Y0139905D01*
X0107298Y0141406D01*
X0108049Y0142156D01*
X0108799Y0142156D01*
X0109550Y0141406D01*
X0109550Y0139905D01*
X0108799Y0139154D01*
X0108799Y0137553D02*
X0105046Y0137553D01*
X0105046Y0134550D02*
X0108799Y0134550D01*
X0109550Y0135301D01*
X0109550Y0136802D01*
X0108799Y0137553D01*
X0110301Y0140655D02*
X0104296Y0140655D01*
X0124550Y0149550D02*
X0124550Y0152553D01*
X0126051Y0154054D01*
X0127553Y0152553D01*
X0127553Y0149550D01*
X0129154Y0149550D02*
X0129154Y0154054D01*
X0131406Y0154054D01*
X0132156Y0153303D01*
X0132156Y0151802D01*
X0131406Y0151051D01*
X0129154Y0151051D01*
X0130655Y0151051D02*
X0132156Y0149550D01*
X0133758Y0149550D02*
X0136010Y0149550D01*
X0136760Y0150301D01*
X0136760Y0153303D01*
X0136010Y0154054D01*
X0133758Y0154054D01*
X0133758Y0149550D01*
X0138362Y0150301D02*
X0138362Y0154054D01*
X0141364Y0154054D02*
X0141364Y0150301D01*
X0140614Y0149550D01*
X0139112Y0149550D01*
X0138362Y0150301D01*
X0142966Y0149550D02*
X0144467Y0149550D01*
X0143716Y0149550D02*
X0143716Y0154054D01*
X0142966Y0154054D02*
X0144467Y0154054D01*
X0146035Y0154054D02*
X0146035Y0149550D01*
X0149038Y0149550D02*
X0146035Y0154054D01*
X0149038Y0154054D02*
X0149038Y0149550D01*
X0150639Y0150301D02*
X0151390Y0149550D01*
X0152891Y0149550D01*
X0153641Y0150301D01*
X0153641Y0153303D01*
X0152891Y0154054D01*
X0151390Y0154054D01*
X0150639Y0153303D01*
X0150639Y0150301D01*
X0155243Y0151802D02*
X0158245Y0151802D01*
X0159847Y0154054D02*
X0162849Y0154054D01*
X0161348Y0154054D02*
X0161348Y0149550D01*
X0164451Y0149550D02*
X0164451Y0154054D01*
X0167453Y0154054D01*
X0169055Y0154054D02*
X0169055Y0149550D01*
X0172057Y0149550D01*
X0173659Y0149550D02*
X0173659Y0154054D01*
X0176661Y0149550D01*
X0176661Y0154054D01*
X0178262Y0153303D02*
X0178262Y0152553D01*
X0179013Y0151802D01*
X0180514Y0151802D01*
X0181265Y0151051D01*
X0181265Y0150301D01*
X0180514Y0149550D01*
X0179013Y0149550D01*
X0178262Y0150301D01*
X0178262Y0153303D02*
X0179013Y0154054D01*
X0180514Y0154054D01*
X0181265Y0153303D01*
X0182866Y0153303D02*
X0184368Y0151802D01*
X0184368Y0149550D01*
X0184368Y0151802D02*
X0185869Y0153303D01*
X0185869Y0154054D01*
X0187470Y0151802D02*
X0190473Y0151802D01*
X0192074Y0151802D02*
X0195077Y0151802D01*
X0193576Y0153303D02*
X0193576Y0150301D01*
X0188972Y0150301D02*
X0188972Y0153303D01*
X0182866Y0153303D02*
X0182866Y0154054D01*
X0172057Y0154054D02*
X0169055Y0154054D01*
X0169055Y0151802D02*
X0170556Y0151802D01*
X0167453Y0149550D02*
X0164451Y0149550D01*
X0164451Y0151802D02*
X0165952Y0151802D01*
X0127553Y0151802D02*
X0124550Y0151802D01*
D12*
X0026800Y0041800D02*
X0026800Y0024300D01*
X0056800Y0024300D01*
X0056800Y0041800D01*
X0026800Y0041800D01*
X0026800Y0049300D01*
X0056800Y0049300D01*
X0056800Y0041800D01*
X0071800Y0041800D02*
X0101800Y0041800D01*
X0101800Y0024300D01*
X0071800Y0024300D01*
X0071800Y0041800D01*
X0071800Y0049300D01*
X0101800Y0049300D01*
X0101800Y0041800D01*
X0116800Y0041800D02*
X0146800Y0041800D01*
X0146800Y0024300D01*
X0116800Y0024300D01*
X0116800Y0041800D01*
X0116800Y0049300D01*
X0146800Y0049300D01*
X0146800Y0041800D01*
X0161800Y0041800D02*
X0191800Y0041800D01*
X0191800Y0024300D01*
X0161800Y0024300D01*
X0161800Y0041800D01*
X0161800Y0049300D01*
X0191800Y0049300D01*
X0191800Y0041800D01*
X0206800Y0041800D02*
X0236800Y0041800D01*
X0236800Y0024300D01*
X0206800Y0024300D01*
X0206800Y0041800D01*
X0206800Y0049300D01*
X0236800Y0049300D01*
X0236800Y0041800D01*
X0251800Y0041800D02*
X0281800Y0041800D01*
X0281800Y0024300D01*
X0251800Y0024300D01*
X0251800Y0041800D01*
X0251800Y0049300D01*
X0281800Y0049300D01*
X0281800Y0041800D01*
X0296800Y0041800D02*
X0326800Y0041800D01*
X0326800Y0024300D01*
X0296800Y0024300D01*
X0296800Y0041800D01*
X0296800Y0049300D01*
X0326800Y0049300D01*
X0326800Y0041800D01*
X0341800Y0041800D02*
X0371800Y0041800D01*
X0371800Y0024300D01*
X0341800Y0024300D01*
X0341800Y0041800D01*
X0341800Y0049300D01*
X0371800Y0049300D01*
X0371800Y0041800D01*
X0361800Y0069300D02*
X0361800Y0086800D01*
X0391800Y0086800D01*
X0391800Y0069300D01*
X0361800Y0069300D01*
X0346800Y0069300D02*
X0316800Y0069300D01*
X0316800Y0086800D01*
X0346800Y0086800D01*
X0346800Y0069300D01*
X0346800Y0086800D02*
X0346800Y0094300D01*
X0316800Y0094300D01*
X0316800Y0086800D01*
X0301800Y0086800D02*
X0271800Y0086800D01*
X0271800Y0094300D01*
X0301800Y0094300D01*
X0301800Y0086800D01*
X0301800Y0069300D01*
X0271800Y0069300D01*
X0271800Y0086800D01*
X0256800Y0086800D02*
X0226800Y0086800D01*
X0226800Y0094300D01*
X0256800Y0094300D01*
X0256800Y0086800D01*
X0256800Y0069300D01*
X0226800Y0069300D01*
X0226800Y0086800D01*
X0211800Y0086800D02*
X0181800Y0086800D01*
X0181800Y0094300D01*
X0211800Y0094300D01*
X0211800Y0086800D01*
X0211800Y0069300D01*
X0181800Y0069300D01*
X0181800Y0086800D01*
X0166800Y0086800D02*
X0136800Y0086800D01*
X0136800Y0094300D01*
X0166800Y0094300D01*
X0166800Y0086800D01*
X0166800Y0069300D01*
X0136800Y0069300D01*
X0136800Y0086800D01*
X0121800Y0086800D02*
X0091800Y0086800D01*
X0091800Y0094300D01*
X0121800Y0094300D01*
X0121800Y0086800D01*
X0121800Y0069300D01*
X0091800Y0069300D01*
X0091800Y0086800D01*
X0076800Y0086800D02*
X0046800Y0086800D01*
X0046800Y0094300D01*
X0076800Y0094300D01*
X0076800Y0086800D01*
X0076800Y0069300D01*
X0046800Y0069300D01*
X0046800Y0086800D01*
X0046800Y0234300D02*
X0046800Y0251800D01*
X0076800Y0251800D01*
X0076800Y0234300D01*
X0046800Y0234300D01*
X0046800Y0251800D02*
X0046800Y0259300D01*
X0076800Y0259300D01*
X0076800Y0251800D01*
X0091800Y0251800D02*
X0121800Y0251800D01*
X0121800Y0234300D01*
X0091800Y0234300D01*
X0091800Y0251800D01*
X0091800Y0259300D01*
X0121800Y0259300D01*
X0121800Y0251800D01*
X0136800Y0251800D02*
X0166800Y0251800D01*
X0166800Y0234300D01*
X0136800Y0234300D01*
X0136800Y0251800D01*
X0136800Y0259300D01*
X0166800Y0259300D01*
X0166800Y0251800D01*
X0181800Y0251800D02*
X0211800Y0251800D01*
X0211800Y0234300D01*
X0181800Y0234300D01*
X0181800Y0251800D01*
X0181800Y0259300D01*
X0211800Y0259300D01*
X0211800Y0251800D01*
X0226800Y0251800D02*
X0256800Y0251800D01*
X0256800Y0234300D01*
X0226800Y0234300D01*
X0226800Y0251800D01*
X0226800Y0259300D01*
X0256800Y0259300D01*
X0256800Y0251800D01*
X0271800Y0251800D02*
X0301800Y0251800D01*
X0301800Y0234300D01*
X0271800Y0234300D01*
X0271800Y0251800D01*
X0271800Y0259300D01*
X0301800Y0259300D01*
X0301800Y0251800D01*
X0316800Y0251800D02*
X0346800Y0251800D01*
X0346800Y0234300D01*
X0316800Y0234300D01*
X0316800Y0251800D01*
X0316800Y0259300D01*
X0346800Y0259300D01*
X0346800Y0251800D01*
X0361800Y0251800D02*
X0391800Y0251800D01*
X0391800Y0234300D01*
X0361800Y0234300D01*
X0361800Y0251800D01*
X0361800Y0259300D01*
X0391800Y0259300D01*
X0391800Y0251800D01*
X0371800Y0279300D02*
X0341800Y0279300D01*
X0341800Y0296800D01*
X0371800Y0296800D01*
X0371800Y0279300D01*
X0371800Y0296800D02*
X0371800Y0304300D01*
X0341800Y0304300D01*
X0341800Y0296800D01*
X0326800Y0296800D02*
X0296800Y0296800D01*
X0296800Y0304300D01*
X0326800Y0304300D01*
X0326800Y0296800D01*
X0326800Y0279300D01*
X0296800Y0279300D01*
X0296800Y0296800D01*
X0281800Y0296800D02*
X0251800Y0296800D01*
X0251800Y0304300D01*
X0281800Y0304300D01*
X0281800Y0296800D01*
X0281800Y0279300D01*
X0251800Y0279300D01*
X0251800Y0296800D01*
X0236800Y0296800D02*
X0206800Y0296800D01*
X0206800Y0304300D01*
X0236800Y0304300D01*
X0236800Y0296800D01*
X0236800Y0279300D01*
X0206800Y0279300D01*
X0206800Y0296800D01*
X0191800Y0296800D02*
X0161800Y0296800D01*
X0161800Y0304300D01*
X0191800Y0304300D01*
X0191800Y0296800D01*
X0191800Y0279300D01*
X0161800Y0279300D01*
X0161800Y0296800D01*
X0146800Y0296800D02*
X0116800Y0296800D01*
X0116800Y0304300D01*
X0146800Y0304300D01*
X0146800Y0296800D01*
X0146800Y0279300D01*
X0116800Y0279300D01*
X0116800Y0296800D01*
X0101800Y0296800D02*
X0071800Y0296800D01*
X0071800Y0304300D01*
X0101800Y0304300D01*
X0101800Y0296800D01*
X0101800Y0279300D01*
X0071800Y0279300D01*
X0071800Y0296800D01*
X0056800Y0296800D02*
X0026800Y0296800D01*
X0026800Y0304300D01*
X0056800Y0304300D01*
X0056800Y0296800D01*
X0056800Y0279300D01*
X0026800Y0279300D01*
X0026800Y0296800D01*
X0361800Y0094300D02*
X0361800Y0086800D01*
X0361800Y0094300D02*
X0391800Y0094300D01*
X0391800Y0086800D01*
D13*
X0361600Y0097601D02*
X0361600Y0098802D01*
X0360999Y0099402D01*
X0360999Y0100683D02*
X0361600Y0100683D01*
X0360999Y0100683D02*
X0358597Y0103085D01*
X0357997Y0103085D01*
X0357997Y0100683D01*
X0358597Y0099402D02*
X0357997Y0098802D01*
X0357997Y0097601D01*
X0358597Y0097000D01*
X0360999Y0097000D01*
X0361600Y0097601D01*
X0340999Y0058085D02*
X0340399Y0058085D01*
X0339798Y0057485D01*
X0339798Y0055683D01*
X0340999Y0055683D01*
X0341600Y0056284D01*
X0341600Y0057485D01*
X0340999Y0058085D01*
X0338597Y0056884D02*
X0339798Y0055683D01*
X0338597Y0056884D02*
X0337997Y0058085D01*
X0338597Y0054402D02*
X0337997Y0053802D01*
X0337997Y0052601D01*
X0338597Y0052000D01*
X0340999Y0052000D01*
X0341600Y0052601D01*
X0341600Y0053802D01*
X0340999Y0054402D01*
X0296600Y0053802D02*
X0295999Y0054402D01*
X0296600Y0053802D02*
X0296600Y0052601D01*
X0295999Y0052000D01*
X0293597Y0052000D01*
X0292997Y0052601D01*
X0292997Y0053802D01*
X0293597Y0054402D01*
X0294798Y0055683D02*
X0294798Y0058085D01*
X0292997Y0057485D02*
X0294798Y0055683D01*
X0292997Y0057485D02*
X0296600Y0057485D01*
X0251600Y0058085D02*
X0251600Y0055683D01*
X0249198Y0058085D01*
X0248597Y0058085D01*
X0247997Y0057485D01*
X0247997Y0056284D01*
X0248597Y0055683D01*
X0248597Y0054402D02*
X0247997Y0053802D01*
X0247997Y0052601D01*
X0248597Y0052000D01*
X0250999Y0052000D01*
X0251600Y0052601D01*
X0251600Y0053802D01*
X0250999Y0054402D01*
X0206600Y0053802D02*
X0205999Y0054402D01*
X0206600Y0053802D02*
X0206600Y0052601D01*
X0205999Y0052000D01*
X0203597Y0052000D01*
X0202997Y0052601D01*
X0202997Y0053802D01*
X0203597Y0054402D01*
X0203597Y0055683D02*
X0202997Y0056284D01*
X0202997Y0057485D01*
X0203597Y0058085D01*
X0205999Y0055683D01*
X0206600Y0056284D01*
X0206600Y0057485D01*
X0205999Y0058085D01*
X0203597Y0058085D01*
X0203597Y0055683D02*
X0205999Y0055683D01*
X0161600Y0056284D02*
X0160999Y0055683D01*
X0158597Y0058085D01*
X0160999Y0058085D01*
X0161600Y0057485D01*
X0161600Y0056284D01*
X0160999Y0055683D02*
X0158597Y0055683D01*
X0157997Y0056284D01*
X0157997Y0057485D01*
X0158597Y0058085D01*
X0157997Y0054402D02*
X0157997Y0052000D01*
X0161600Y0052000D01*
X0161600Y0054402D01*
X0159798Y0053201D02*
X0159798Y0052000D01*
X0116600Y0052000D02*
X0116600Y0053802D01*
X0115999Y0054402D01*
X0113597Y0054402D01*
X0112997Y0053802D01*
X0112997Y0052000D01*
X0116600Y0052000D01*
X0115999Y0055683D02*
X0116600Y0056284D01*
X0116600Y0057485D01*
X0115999Y0058085D01*
X0115399Y0058085D01*
X0114798Y0057485D01*
X0114798Y0055683D01*
X0115999Y0055683D01*
X0114798Y0055683D02*
X0113597Y0056884D01*
X0112997Y0058085D01*
X0071600Y0057485D02*
X0067997Y0057485D01*
X0069798Y0055683D01*
X0069798Y0058085D01*
X0068597Y0054402D02*
X0067997Y0053802D01*
X0067997Y0052000D01*
X0071600Y0052000D01*
X0071600Y0053802D01*
X0070999Y0054402D01*
X0068597Y0054402D01*
X0046590Y0052000D02*
X0044188Y0052000D01*
X0045389Y0052000D02*
X0045389Y0055603D01*
X0044188Y0054402D01*
X0042907Y0055603D02*
X0040505Y0052000D01*
X0039224Y0052601D02*
X0038623Y0052000D01*
X0037422Y0052000D01*
X0036822Y0052601D01*
X0039224Y0055003D01*
X0039224Y0052601D01*
X0039224Y0055003D02*
X0038623Y0055603D01*
X0037422Y0055603D01*
X0036822Y0055003D01*
X0036822Y0052601D01*
X0034340Y0052000D02*
X0034340Y0055603D01*
X0033139Y0055603D02*
X0035541Y0055603D01*
X0031857Y0055603D02*
X0031857Y0052000D01*
X0029455Y0055603D01*
X0029455Y0052000D01*
X0028201Y0052000D02*
X0027000Y0052000D01*
X0027601Y0052000D02*
X0027601Y0055603D01*
X0028201Y0055603D02*
X0027000Y0055603D01*
X0047000Y0097000D02*
X0048201Y0097000D01*
X0047601Y0097000D02*
X0047601Y0100603D01*
X0048201Y0100603D02*
X0047000Y0100603D01*
X0049455Y0100603D02*
X0051857Y0097000D01*
X0051857Y0100603D01*
X0053139Y0100603D02*
X0055541Y0100603D01*
X0054340Y0100603D02*
X0054340Y0097000D01*
X0056822Y0097000D02*
X0059224Y0099402D01*
X0059224Y0100003D01*
X0058623Y0100603D01*
X0057422Y0100603D01*
X0056822Y0100003D01*
X0056822Y0097000D02*
X0059224Y0097000D01*
X0060505Y0097000D02*
X0062907Y0100603D01*
X0064188Y0100003D02*
X0064789Y0100603D01*
X0065990Y0100603D01*
X0066590Y0100003D01*
X0066590Y0099402D01*
X0065990Y0098802D01*
X0066590Y0098201D01*
X0066590Y0097601D01*
X0065990Y0097000D01*
X0064789Y0097000D01*
X0064188Y0097601D01*
X0065389Y0098802D02*
X0065990Y0098802D01*
X0049455Y0097000D02*
X0049455Y0100603D01*
X0087997Y0100683D02*
X0089798Y0100683D01*
X0089198Y0101884D01*
X0089198Y0102485D01*
X0089798Y0103085D01*
X0090999Y0103085D01*
X0091600Y0102485D01*
X0091600Y0101284D01*
X0090999Y0100683D01*
X0090999Y0099402D02*
X0088597Y0099402D01*
X0087997Y0098802D01*
X0087997Y0097000D01*
X0091600Y0097000D01*
X0091600Y0098802D01*
X0090999Y0099402D01*
X0087997Y0100683D02*
X0087997Y0103085D01*
X0132997Y0103085D02*
X0132997Y0100683D01*
X0133597Y0099402D02*
X0132997Y0098802D01*
X0132997Y0097000D01*
X0136600Y0097000D01*
X0136600Y0098802D01*
X0135999Y0099402D01*
X0133597Y0099402D01*
X0135999Y0100683D02*
X0136600Y0100683D01*
X0135999Y0100683D02*
X0133597Y0103085D01*
X0132997Y0103085D01*
X0177997Y0101884D02*
X0181600Y0101884D01*
X0181600Y0100683D02*
X0181600Y0103085D01*
X0179198Y0100683D02*
X0177997Y0101884D01*
X0177997Y0099402D02*
X0177997Y0097000D01*
X0181600Y0097000D01*
X0181600Y0099402D01*
X0179798Y0098201D02*
X0179798Y0097000D01*
X0222997Y0097601D02*
X0223597Y0097000D01*
X0225999Y0097000D01*
X0226600Y0097601D01*
X0226600Y0098802D01*
X0225999Y0099402D01*
X0226600Y0100683D02*
X0226600Y0103085D01*
X0226600Y0101884D02*
X0222997Y0101884D01*
X0224198Y0100683D01*
X0223597Y0099402D02*
X0222997Y0098802D01*
X0222997Y0097601D01*
X0267997Y0097601D02*
X0268597Y0097000D01*
X0270999Y0097000D01*
X0271600Y0097601D01*
X0271600Y0098802D01*
X0270999Y0099402D01*
X0270999Y0100683D02*
X0271600Y0101284D01*
X0271600Y0102485D01*
X0270999Y0103085D01*
X0270399Y0103085D01*
X0269798Y0102485D01*
X0269798Y0101884D01*
X0269798Y0102485D02*
X0269198Y0103085D01*
X0268597Y0103085D01*
X0267997Y0102485D01*
X0267997Y0101284D01*
X0268597Y0100683D01*
X0268597Y0099402D02*
X0267997Y0098802D01*
X0267997Y0097601D01*
X0312997Y0097601D02*
X0313597Y0097000D01*
X0315999Y0097000D01*
X0316600Y0097601D01*
X0316600Y0098802D01*
X0315999Y0099402D01*
X0315999Y0100683D02*
X0316600Y0101284D01*
X0316600Y0102485D01*
X0315999Y0103085D01*
X0314798Y0103085D01*
X0314198Y0102485D01*
X0314198Y0101884D01*
X0314798Y0100683D01*
X0312997Y0100683D01*
X0312997Y0103085D01*
X0313597Y0099402D02*
X0312997Y0098802D01*
X0312997Y0097601D01*
X0312997Y0262000D02*
X0312997Y0264402D01*
X0312997Y0265683D02*
X0314798Y0265683D01*
X0314198Y0266884D01*
X0314198Y0267485D01*
X0314798Y0268085D01*
X0315999Y0268085D01*
X0316600Y0267485D01*
X0316600Y0266284D01*
X0315999Y0265683D01*
X0314798Y0263201D02*
X0314798Y0262000D01*
X0312997Y0262000D02*
X0316600Y0262000D01*
X0312997Y0265683D02*
X0312997Y0268085D01*
X0271600Y0267485D02*
X0271600Y0266284D01*
X0270999Y0265683D01*
X0269798Y0266884D02*
X0269798Y0267485D01*
X0270399Y0268085D01*
X0270999Y0268085D01*
X0271600Y0267485D01*
X0269798Y0267485D02*
X0269198Y0268085D01*
X0268597Y0268085D01*
X0267997Y0267485D01*
X0267997Y0266284D01*
X0268597Y0265683D01*
X0267997Y0264402D02*
X0267997Y0262000D01*
X0271600Y0262000D01*
X0269798Y0262000D02*
X0269798Y0263201D01*
X0226600Y0262000D02*
X0222997Y0262000D01*
X0222997Y0264402D01*
X0224198Y0265683D02*
X0222997Y0266884D01*
X0226600Y0266884D01*
X0226600Y0265683D02*
X0226600Y0268085D01*
X0224798Y0263201D02*
X0224798Y0262000D01*
X0201590Y0265003D02*
X0199188Y0262601D01*
X0199188Y0262000D01*
X0199188Y0265603D02*
X0201590Y0265603D01*
X0201590Y0265003D01*
X0197907Y0265603D02*
X0195505Y0262000D01*
X0194224Y0262601D02*
X0194224Y0263201D01*
X0193623Y0263802D01*
X0191822Y0263802D01*
X0191822Y0262601D01*
X0192422Y0262000D01*
X0193623Y0262000D01*
X0194224Y0262601D01*
X0193023Y0265003D02*
X0191822Y0263802D01*
X0193023Y0265003D02*
X0194224Y0265603D01*
X0190541Y0265603D02*
X0188139Y0265603D01*
X0189340Y0265603D02*
X0189340Y0262000D01*
X0186857Y0262000D02*
X0186857Y0265603D01*
X0184455Y0265603D02*
X0186857Y0262000D01*
X0184455Y0262000D02*
X0184455Y0265603D01*
X0183201Y0265603D02*
X0182000Y0265603D01*
X0182601Y0265603D02*
X0182601Y0262000D01*
X0183201Y0262000D02*
X0182000Y0262000D01*
X0136600Y0262000D02*
X0136600Y0263802D01*
X0135999Y0264402D01*
X0135399Y0264402D01*
X0134798Y0263802D01*
X0134798Y0262000D01*
X0132997Y0262000D02*
X0132997Y0263802D01*
X0133597Y0264402D01*
X0134198Y0264402D01*
X0134798Y0263802D01*
X0134198Y0265683D02*
X0132997Y0266884D01*
X0136600Y0266884D01*
X0136600Y0265683D02*
X0136600Y0268085D01*
X0136600Y0262000D02*
X0132997Y0262000D01*
X0091600Y0262000D02*
X0091600Y0263802D01*
X0090999Y0264402D01*
X0090399Y0264402D01*
X0089798Y0263802D01*
X0089798Y0262000D01*
X0087997Y0262000D02*
X0091600Y0262000D01*
X0089798Y0263802D02*
X0089198Y0264402D01*
X0088597Y0264402D01*
X0087997Y0263802D01*
X0087997Y0262000D01*
X0088597Y0265683D02*
X0087997Y0266284D01*
X0087997Y0267485D01*
X0088597Y0268085D01*
X0089198Y0268085D01*
X0089798Y0267485D01*
X0090399Y0268085D01*
X0090999Y0268085D01*
X0091600Y0267485D01*
X0091600Y0266284D01*
X0090999Y0265683D01*
X0089798Y0266884D02*
X0089798Y0267485D01*
X0046600Y0267485D02*
X0046600Y0266284D01*
X0045999Y0265683D01*
X0044798Y0265683D02*
X0044198Y0266884D01*
X0044198Y0267485D01*
X0044798Y0268085D01*
X0045999Y0268085D01*
X0046600Y0267485D01*
X0044798Y0265683D02*
X0042997Y0265683D01*
X0042997Y0268085D01*
X0043597Y0264402D02*
X0044198Y0264402D01*
X0044798Y0263802D01*
X0044798Y0262000D01*
X0042997Y0262000D02*
X0042997Y0263802D01*
X0043597Y0264402D01*
X0044798Y0263802D02*
X0045399Y0264402D01*
X0045999Y0264402D01*
X0046600Y0263802D01*
X0046600Y0262000D01*
X0042997Y0262000D01*
X0026600Y0307000D02*
X0022997Y0307000D01*
X0022997Y0308802D01*
X0023597Y0309402D01*
X0024198Y0309402D01*
X0024798Y0308802D01*
X0024798Y0307000D01*
X0024798Y0308802D02*
X0025399Y0309402D01*
X0025999Y0309402D01*
X0026600Y0308802D01*
X0026600Y0307000D01*
X0025999Y0310683D02*
X0024798Y0310683D01*
X0024798Y0312485D01*
X0025399Y0313085D01*
X0025999Y0313085D01*
X0026600Y0312485D01*
X0026600Y0311284D01*
X0025999Y0310683D01*
X0024798Y0310683D02*
X0023597Y0311884D01*
X0022997Y0313085D01*
X0067997Y0312485D02*
X0069798Y0310683D01*
X0069798Y0313085D01*
X0067997Y0312485D02*
X0071600Y0312485D01*
X0070999Y0309402D02*
X0071600Y0308802D01*
X0071600Y0307000D01*
X0067997Y0307000D01*
X0067997Y0308802D01*
X0068597Y0309402D01*
X0069198Y0309402D01*
X0069798Y0308802D01*
X0069798Y0307000D01*
X0069798Y0308802D02*
X0070399Y0309402D01*
X0070999Y0309402D01*
X0112997Y0308802D02*
X0112997Y0307000D01*
X0116600Y0307000D01*
X0116600Y0308802D01*
X0115999Y0309402D01*
X0115399Y0309402D01*
X0114798Y0308802D01*
X0114798Y0307000D01*
X0114798Y0308802D02*
X0114198Y0309402D01*
X0113597Y0309402D01*
X0112997Y0308802D01*
X0113597Y0310683D02*
X0112997Y0311284D01*
X0112997Y0312485D01*
X0113597Y0313085D01*
X0114198Y0313085D01*
X0116600Y0310683D01*
X0116600Y0313085D01*
X0157997Y0312485D02*
X0157997Y0311284D01*
X0158597Y0310683D01*
X0160999Y0310683D01*
X0158597Y0313085D01*
X0160999Y0313085D01*
X0161600Y0312485D01*
X0161600Y0311284D01*
X0160999Y0310683D01*
X0160999Y0309402D02*
X0161600Y0308802D01*
X0161600Y0307000D01*
X0157997Y0307000D01*
X0157997Y0308802D01*
X0158597Y0309402D01*
X0159198Y0309402D01*
X0159798Y0308802D01*
X0159798Y0307000D01*
X0159798Y0308802D02*
X0160399Y0309402D01*
X0160999Y0309402D01*
X0157997Y0312485D02*
X0158597Y0313085D01*
X0202997Y0312485D02*
X0202997Y0311284D01*
X0203597Y0310683D01*
X0205999Y0310683D01*
X0203597Y0313085D01*
X0205999Y0313085D01*
X0206600Y0312485D01*
X0206600Y0311284D01*
X0205999Y0310683D01*
X0204798Y0308201D02*
X0204798Y0307000D01*
X0202997Y0307000D02*
X0206600Y0307000D01*
X0202997Y0307000D02*
X0202997Y0309402D01*
X0202997Y0312485D02*
X0203597Y0313085D01*
X0247997Y0312485D02*
X0247997Y0311284D01*
X0248597Y0310683D01*
X0247997Y0309402D02*
X0247997Y0307000D01*
X0251600Y0307000D01*
X0249798Y0307000D02*
X0249798Y0308201D01*
X0251600Y0310683D02*
X0249198Y0313085D01*
X0248597Y0313085D01*
X0247997Y0312485D01*
X0251600Y0313085D02*
X0251600Y0310683D01*
X0292997Y0309402D02*
X0292997Y0307000D01*
X0296600Y0307000D01*
X0294798Y0307000D02*
X0294798Y0308201D01*
X0294798Y0310683D02*
X0294798Y0313085D01*
X0292997Y0312485D02*
X0296600Y0312485D01*
X0294798Y0310683D02*
X0292997Y0312485D01*
X0337997Y0313085D02*
X0338597Y0311884D01*
X0339798Y0310683D01*
X0339798Y0312485D01*
X0340399Y0313085D01*
X0340999Y0313085D01*
X0341600Y0312485D01*
X0341600Y0311284D01*
X0340999Y0310683D01*
X0339798Y0310683D01*
X0337997Y0309402D02*
X0337997Y0307000D01*
X0341600Y0307000D01*
X0339798Y0307000D02*
X0339798Y0308201D01*
X0357997Y0268085D02*
X0358597Y0268085D01*
X0360999Y0265683D01*
X0361600Y0265683D01*
X0359798Y0263201D02*
X0359798Y0262000D01*
X0357997Y0262000D02*
X0357997Y0264402D01*
X0357997Y0265683D02*
X0357997Y0268085D01*
X0357997Y0262000D02*
X0361600Y0262000D01*
M02*
